{
	"asset":{
		"generator":"Khronos glTF Blender I/O v3.6.27",
		"version":"2.0"
	},
	"scene":0,
	"scenes":[
		{
			"name":"Scene",
			"nodes":[
				0,
				1,
				2,
				3,
				4,
				5,
				6,
				7,
				8
			]
		}
	],
	"nodes":[
		{
			"mesh":0,
			"name":"Cube",
			"scale":[
				0.8925788998603821,
				0.23808114230632782,
				0.24390658736228943
			],
			"translation":[
				-0.25500592589378357,
				0.6050592660903931,
				0
			]
		},
		{
			"mesh":1,
			"name":"Cylinder",
			"scale":[
				0.25983935594558716,
				0.8902289271354675,
				0.25983935594558716
			],
			"translation":[
				0.005464296787977219,
				-0.806188702583313,
				0
			]
		},
		{
			"mesh":2,
			"name":"Cylinder.001",
			"scale":[
				0.25983935594558716,
				0.8902289271354675,
				0.25983935594558716
			],
			"translation":[
				0.005464296787977219,
				-0.806188702583313,
				0
			]
		},
		{
			"mesh":3,
			"name":"Cylinder.002",
			"rotation":[
				-0.7042176723480225,
				0,
				0,
				0.7099841237068176
			],
			"scale":[
				0.37070727348327637,
				0.1996709257364273,
				0.37069857120513916
			],
			"translation":[
				0.005464296787977219,
				-2.0217533111572266,
				0
			]
		},
		{
			"mesh":4,
			"name":"Cube.001",
			"rotation":[
				0,
				0.9999953508377075,
				0,
				0.003080645576119423
			],
			"scale":[
				0.8925788998603821,
				0.23808114230632782,
				0.24390660226345062
			],
			"translation":[
				0.2765147387981415,
				0.6050592660903931,
				0
			]
		},
		{
			"mesh":5,
			"name":"Cube.002",
			"scale":[
				1.8782527446746826,
				1.8782527446746826,
				1.267462134361267
			],
			"translation":[
				-0.0004985095001757145,
				1.3039991855621338,
				0
			]
		},
		{
			"mesh":6,
			"name":"Cube.003",
			"scale":[
				1.8782527446746826,
				1.8782527446746826,
				1.267462134361267
			],
			"translation":[
				-0.0004985095001757145,
				1.3039991855621338,
				0
			]
		},
		{
			"mesh":7,
			"name":"Cube.004",
			"rotation":[
				0,
				-1,
				0,
				1.6292068494294654e-07
			],
			"scale":[
				1.8782527446746826,
				1.8782527446746826,
				1.267462134361267
			],
			"translation":[
				0.0016337395645678043,
				1.3039991855621338,
				0
			]
		},
		{
			"mesh":8,
			"name":"Cube.005",
			"rotation":[
				0,
				-0.9999557733535767,
				-0.009413493797183037,
				4.887692739430349e-07
			],
			"scale":[
				1.8782527446746826,
				1.8780715465545654,
				1.267730951309204
			],
			"translation":[
				0.0016337395645678043,
				1.3039991855621338,
				0
			]
		}
	],
	"materials":[
		{
			"doubleSided":true,
			"name":"Material.008",
			"pbrMetallicRoughness":{
				"baseColorTexture":{
					"index":0
				},
				"metallicFactor":0,
				"roughnessFactor":0.5
			}
		},
		{
			"doubleSided":true,
			"name":"Material.010",
			"pbrMetallicRoughness":{
				"baseColorTexture":{
					"index":1
				},
				"metallicFactor":0,
				"roughnessFactor":0.5
			}
		},
		{
			"doubleSided":true,
			"name":"Material.009",
			"pbrMetallicRoughness":{
				"baseColorTexture":{
					"index":2
				},
				"metallicFactor":0,
				"roughnessFactor":0.5
			}
		},
		{
			"doubleSided":true,
			"name":"Material.006",
			"pbrMetallicRoughness":{
				"baseColorTexture":{
					"index":3
				},
				"metallicFactor":0,
				"roughnessFactor":0.5
			}
		},
		{
			"doubleSided":true,
			"name":"Material.007",
			"pbrMetallicRoughness":{
				"baseColorTexture":{
					"index":4
				},
				"metallicFactor":0,
				"roughnessFactor":0.5
			}
		},
		{
			"doubleSided":true,
			"name":"Material.011",
			"pbrMetallicRoughness":{
				"baseColorTexture":{
					"index":5
				},
				"metallicFactor":0,
				"roughnessFactor":0.5
			}
		},
		{
			"doubleSided":true,
			"name":"Material.013",
			"pbrMetallicRoughness":{
				"baseColorTexture":{
					"index":6
				},
				"metallicFactor":0,
				"roughnessFactor":0.5
			}
		}
	],
	"meshes":[
		{
			"name":"Cube.009",
			"primitives":[
				{
					"attributes":{
						"POSITION":0,
						"NORMAL":1,
						"TEXCOORD_0":2
					},
					"indices":3,
					"material":0
				}
			]
		},
		{
			"name":"Cylinder",
			"primitives":[
				{
					"attributes":{
						"POSITION":4,
						"NORMAL":5,
						"TEXCOORD_0":6
					},
					"indices":7,
					"material":1
				}
			]
		},
		{
			"name":"Cylinder.001",
			"primitives":[
				{
					"attributes":{
						"POSITION":8,
						"NORMAL":9,
						"TEXCOORD_0":10
					},
					"indices":11,
					"material":2
				}
			]
		},
		{
			"name":"Cylinder.002",
			"primitives":[
				{
					"attributes":{
						"POSITION":12,
						"NORMAL":13,
						"TEXCOORD_0":14
					},
					"indices":15,
					"material":3
				}
			]
		},
		{
			"name":"Cube.011",
			"primitives":[
				{
					"attributes":{
						"POSITION":16,
						"NORMAL":17,
						"TEXCOORD_0":18
					},
					"indices":3,
					"material":4
				}
			]
		},
		{
			"name":"Cube",
			"primitives":[
				{
					"attributes":{
						"POSITION":19,
						"NORMAL":20,
						"TEXCOORD_0":21
					},
					"indices":22,
					"material":5
				}
			]
		},
		{
			"name":"Cube.001",
			"primitives":[
				{
					"attributes":{
						"POSITION":23,
						"NORMAL":24,
						"TEXCOORD_0":25
					},
					"indices":26,
					"material":5
				}
			]
		},
		{
			"name":"Cube.004",
			"primitives":[
				{
					"attributes":{
						"POSITION":27,
						"NORMAL":28,
						"TEXCOORD_0":29
					},
					"indices":26,
					"material":6
				}
			]
		},
		{
			"name":"Cube.005",
			"primitives":[
				{
					"attributes":{
						"POSITION":30,
						"NORMAL":31,
						"TEXCOORD_0":32
					},
					"indices":22,
					"material":6
				}
			]
		}
	],
	"textures":[
		{
			"sampler":0,
			"source":0
		},
		{
			"sampler":0,
			"source":1
		},
		{
			"sampler":0,
			"source":2
		},
		{
			"sampler":0,
			"source":2
		},
		{
			"sampler":0,
			"source":0
		},
		{
			"sampler":0,
			"source":0
		},
		{
			"sampler":0,
			"source":0
		}
	],
	"images":[
		{
			"mimeType":"image/jpeg",
			"name":"silver-metallic-textured-background",
			"uri":"silver-metallic-textured-background.jpg"
		},
		{
			"mimeType":"image/jpeg",
			"name":"felipe-santana-xJkTCbtuqAY-unsplash",
			"uri":"felipe-santana-xJkTCbtuqAY-unsplash.jpg"
		},
		{
			"mimeType":"image/jpeg",
			"name":"golden-scratched-surface-texture-photo",
			"uri":"golden-scratched-surface-texture-photo.jpg"
		}
	],
	"accessors":[
		{
			"bufferView":0,
			"componentType":5126,
			"count":198,
			"max":[
				2.9859774112701416,
				2.4172801971435547,
				1
			],
			"min":[
				-0.09552949666976929,
				-2.440402030944824,
				-1
			],
			"type":"VEC3"
		},
		{
			"bufferView":1,
			"componentType":5126,
			"count":198,
			"type":"VEC3"
		},
		{
			"bufferView":2,
			"componentType":5126,
			"count":198,
			"type":"VEC2"
		},
		{
			"bufferView":3,
			"componentType":5123,
			"count":366,
			"type":"SCALAR"
		},
		{
			"bufferView":4,
			"componentType":5126,
			"count":1472,
			"max":[
				1.2691155672073364,
				1,
				1.2691155672073364
			],
			"min":[
				-1.2691155672073364,
				-1,
				-1.2691155672073364
			],
			"type":"VEC3"
		},
		{
			"bufferView":5,
			"componentType":5126,
			"count":1472,
			"type":"VEC3"
		},
		{
			"bufferView":6,
			"componentType":5126,
			"count":1472,
			"type":"VEC2"
		},
		{
			"bufferView":7,
			"componentType":5123,
			"count":2292,
			"type":"SCALAR"
		},
		{
			"bufferView":8,
			"componentType":5126,
			"count":710,
			"max":[
				1.4581258296966553,
				1.0381770133972168,
				1.4581258296966553
			],
			"min":[
				-1.4581258296966553,
				0.795155942440033,
				-1.4581258296966553
			],
			"type":"VEC3"
		},
		{
			"bufferView":9,
			"componentType":5126,
			"count":710,
			"type":"VEC3"
		},
		{
			"bufferView":10,
			"componentType":5126,
			"count":710,
			"type":"VEC2"
		},
		{
			"bufferView":11,
			"componentType":5123,
			"count":1536,
			"type":"SCALAR"
		},
		{
			"bufferView":12,
			"componentType":5126,
			"count":1280,
			"max":[
				0.9943431615829468,
				1.207693338394165,
				0.9943431615829468
			],
			"min":[
				-0.9943431615829468,
				-1,
				-0.9943431615829468
			],
			"type":"VEC3"
		},
		{
			"bufferView":13,
			"componentType":5126,
			"count":1280,
			"type":"VEC3"
		},
		{
			"bufferView":14,
			"componentType":5126,
			"count":1280,
			"type":"VEC2"
		},
		{
			"bufferView":15,
			"componentType":5123,
			"count":1908,
			"type":"SCALAR"
		},
		{
			"bufferView":16,
			"componentType":5126,
			"count":198,
			"max":[
				2.9859774112701416,
				2.4172801971435547,
				1
			],
			"min":[
				-0.09552949666976929,
				-2.440402030944824,
				-1
			],
			"type":"VEC3"
		},
		{
			"bufferView":17,
			"componentType":5126,
			"count":198,
			"type":"VEC3"
		},
		{
			"bufferView":18,
			"componentType":5126,
			"count":198,
			"type":"VEC2"
		},
		{
			"bufferView":19,
			"componentType":5126,
			"count":48,
			"max":[
				0.44624006748199463,
				4.518667697906494,
				0.1339101791381836
			],
			"min":[
				-0.00419306755065918,
				0.3435245752334595,
				-0.1339101791381836
			],
			"type":"VEC3"
		},
		{
			"bufferView":20,
			"componentType":5126,
			"count":48,
			"type":"VEC3"
		},
		{
			"bufferView":21,
			"componentType":5126,
			"count":48,
			"type":"VEC2"
		},
		{
			"bufferView":22,
			"componentType":5123,
			"count":102,
			"type":"SCALAR"
		},
		{
			"bufferView":23,
			"componentType":5126,
			"count":88,
			"max":[
				0.44624006748199463,
				0.3435245752334595,
				0.1339101791381836
			],
			"min":[
				-0.00419306755065918,
				-0.3435245752334595,
				-0.1339101791381836
			],
			"type":"VEC3"
		},
		{
			"bufferView":24,
			"componentType":5126,
			"count":88,
			"type":"VEC3"
		},
		{
			"bufferView":25,
			"componentType":5126,
			"count":88,
			"type":"VEC2"
		},
		{
			"bufferView":26,
			"componentType":5123,
			"count":222,
			"type":"SCALAR"
		},
		{
			"bufferView":27,
			"componentType":5126,
			"count":88,
			"max":[
				0.44624006748199463,
				0.3435245752334595,
				0.1339101791381836
			],
			"min":[
				-0.00419306755065918,
				-0.3435245752334595,
				-0.1339101791381836
			],
			"type":"VEC3"
		},
		{
			"bufferView":28,
			"componentType":5126,
			"count":88,
			"type":"VEC3"
		},
		{
			"bufferView":29,
			"componentType":5126,
			"count":88,
			"type":"VEC2"
		},
		{
			"bufferView":30,
			"componentType":5126,
			"count":48,
			"max":[
				0.44624006748199463,
				4.518667697906494,
				0.1339101791381836
			],
			"min":[
				-0.00419306755065918,
				0.3435245752334595,
				-0.1339101791381836
			],
			"type":"VEC3"
		},
		{
			"bufferView":31,
			"componentType":5126,
			"count":48,
			"type":"VEC3"
		},
		{
			"bufferView":32,
			"componentType":5126,
			"count":48,
			"type":"VEC2"
		}
	],
	"bufferViews":[
		{
			"buffer":0,
			"byteLength":2376,
			"byteOffset":0,
			"target":34962
		},
		{
			"buffer":0,
			"byteLength":2376,
			"byteOffset":2376,
			"target":34962
		},
		{
			"buffer":0,
			"byteLength":1584,
			"byteOffset":4752,
			"target":34962
		},
		{
			"buffer":0,
			"byteLength":732,
			"byteOffset":6336,
			"target":34963
		},
		{
			"buffer":0,
			"byteLength":17664,
			"byteOffset":7068,
			"target":34962
		},
		{
			"buffer":0,
			"byteLength":17664,
			"byteOffset":24732,
			"target":34962
		},
		{
			"buffer":0,
			"byteLength":11776,
			"byteOffset":42396,
			"target":34962
		},
		{
			"buffer":0,
			"byteLength":4584,
			"byteOffset":54172,
			"target":34963
		},
		{
			"buffer":0,
			"byteLength":8520,
			"byteOffset":58756,
			"target":34962
		},
		{
			"buffer":0,
			"byteLength":8520,
			"byteOffset":67276,
			"target":34962
		},
		{
			"buffer":0,
			"byteLength":5680,
			"byteOffset":75796,
			"target":34962
		},
		{
			"buffer":0,
			"byteLength":3072,
			"byteOffset":81476,
			"target":34963
		},
		{
			"buffer":0,
			"byteLength":15360,
			"byteOffset":84548,
			"target":34962
		},
		{
			"buffer":0,
			"byteLength":15360,
			"byteOffset":99908,
			"target":34962
		},
		{
			"buffer":0,
			"byteLength":10240,
			"byteOffset":115268,
			"target":34962
		},
		{
			"buffer":0,
			"byteLength":3816,
			"byteOffset":125508,
			"target":34963
		},
		{
			"buffer":0,
			"byteLength":2376,
			"byteOffset":129324,
			"target":34962
		},
		{
			"buffer":0,
			"byteLength":2376,
			"byteOffset":131700,
			"target":34962
		},
		{
			"buffer":0,
			"byteLength":1584,
			"byteOffset":134076,
			"target":34962
		},
		{
			"buffer":0,
			"byteLength":576,
			"byteOffset":135660,
			"target":34962
		},
		{
			"buffer":0,
			"byteLength":576,
			"byteOffset":136236,
			"target":34962
		},
		{
			"buffer":0,
			"byteLength":384,
			"byteOffset":136812,
			"target":34962
		},
		{
			"buffer":0,
			"byteLength":204,
			"byteOffset":137196,
			"target":34963
		},
		{
			"buffer":0,
			"byteLength":1056,
			"byteOffset":137400,
			"target":34962
		},
		{
			"buffer":0,
			"byteLength":1056,
			"byteOffset":138456,
			"target":34962
		},
		{
			"buffer":0,
			"byteLength":704,
			"byteOffset":139512,
			"target":34962
		},
		{
			"buffer":0,
			"byteLength":444,
			"byteOffset":140216,
			"target":34963
		},
		{
			"buffer":0,
			"byteLength":1056,
			"byteOffset":140660,
			"target":34962
		},
		{
			"buffer":0,
			"byteLength":1056,
			"byteOffset":141716,
			"target":34962
		},
		{
			"buffer":0,
			"byteLength":704,
			"byteOffset":142772,
			"target":34962
		},
		{
			"buffer":0,
			"byteLength":576,
			"byteOffset":143476,
			"target":34962
		},
		{
			"buffer":0,
			"byteLength":576,
			"byteOffset":144052,
			"target":34962
		},
		{
			"buffer":0,
			"byteLength":384,
			"byteOffset":144628,
			"target":34962
		}
	],
	"samplers":[
		{
			"magFilter":9729,
			"minFilter":9987
		}
	],
	"buffers":[
		{
			"byteLength":145012,
			"uri":"Sword2.1.bin"
		}
	]
}
