{
	"asset":{
		"generator":"Khronos glTF Blender I/O v3.6.27",
		"version":"2.0"
	},
	"scene":0,
	"scenes":[
		{
			"name":"Scene",
			"nodes":[
				0,
				1,
				2,
				3,
				4,
				5,
				6,
				7
			]
		}
	],
	"nodes":[
		{
			"mesh":0,
			"name":"Cube",
			"scale":[
				0.7895858883857727,
				0.9220896363258362,
				1
			],
			"translation":[
				0,
				0.1524052768945694,
				0
			]
		},
		{
			"mesh":1,
			"name":"Cube.001"
		},
		{
			"mesh":2,
			"name":"Cube.002",
			"scale":[
				0.18497316539287567,
				0.18497316539287567,
				0.18497316539287567
			],
			"translation":[
				0,
				1.0261560678482056,
				0
			]
		},
		{
			"mesh":3,
			"name":"Cube.003",
			"rotation":[
				0,
				0.999958336353302,
				0,
				0.009127328172326088
			],
			"scale":[
				0.7895858883857727,
				0.9220896363258362,
				1
			],
			"translation":[
				-0.030775904655456543,
				0.1524052768945694,
				0
			]
		},
		{
			"mesh":4,
			"name":"Cube.004",
			"scale":[
				1.09037446975708,
				1,
				1
			],
			"translation":[
				-5.1297887694090605e-05,
				3.0283584594726562,
				0
			]
		},
		{
			"mesh":5,
			"name":"Cube.005",
			"scale":[
				1.09037446975708,
				1,
				1
			],
			"translation":[
				-5.1297887694090605e-05,
				3.0283584594726562,
				0
			]
		},
		{
			"mesh":6,
			"name":"Cube.006",
			"rotation":[
				0,
				-1,
				0,
				1.6292068494294654e-07
			],
			"scale":[
				1.09037446975708,
				1,
				1
			],
			"translation":[
				0.0011865280102938414,
				3.0283584594726562,
				0
			]
		},
		{
			"mesh":7,
			"name":"Cube.007",
			"rotation":[
				0,
				-0.9999557137489319,
				-0.009413492865860462,
				4.887692739430349e-07
			],
			"scale":[
				1.09037446975708,
				1,
				1
			],
			"translation":[
				0.0011865280102938414,
				3.0283584594726562,
				0
			]
		}
	],
	"materials":[
		{
			"doubleSided":true,
			"name":"Material.002",
			"pbrMetallicRoughness":{
				"baseColorTexture":{
					"index":0
				},
				"metallicFactor":0,
				"roughnessFactor":0.5
			}
		},
		{
			"doubleSided":true,
			"name":"Material.005",
			"pbrMetallicRoughness":{
				"baseColorTexture":{
					"index":1
				},
				"metallicFactor":0,
				"roughnessFactor":0.5
			}
		},
		{
			"doubleSided":true,
			"name":"Material.011",
			"pbrMetallicRoughness":{
				"baseColorTexture":{
					"index":2
				},
				"metallicFactor":0,
				"roughnessFactor":0.5
			}
		},
		{
			"doubleSided":true,
			"name":"Material.012",
			"pbrMetallicRoughness":{
				"baseColorTexture":{
					"index":3
				},
				"metallicFactor":0,
				"roughnessFactor":0.5
			}
		}
	],
	"meshes":[
		{
			"name":"Cube.003",
			"primitives":[
				{
					"attributes":{
						"POSITION":0,
						"NORMAL":1,
						"TEXCOORD_0":2
					},
					"indices":3,
					"material":0
				}
			]
		},
		{
			"name":"Cube.004",
			"primitives":[
				{
					"attributes":{
						"POSITION":4,
						"NORMAL":5,
						"TEXCOORD_0":6
					},
					"indices":7,
					"material":1
				}
			]
		},
		{
			"name":"Cube.005",
			"primitives":[
				{
					"attributes":{
						"POSITION":8,
						"NORMAL":9,
						"TEXCOORD_0":10
					},
					"indices":11,
					"material":0
				}
			]
		},
		{
			"name":"Cube.006",
			"primitives":[
				{
					"attributes":{
						"POSITION":12,
						"NORMAL":13,
						"TEXCOORD_0":14
					},
					"indices":3,
					"material":0
				}
			]
		},
		{
			"name":"Cube",
			"primitives":[
				{
					"attributes":{
						"POSITION":15,
						"NORMAL":16,
						"TEXCOORD_0":17
					},
					"indices":18,
					"material":2
				}
			]
		},
		{
			"name":"Cube.001",
			"primitives":[
				{
					"attributes":{
						"POSITION":19,
						"NORMAL":20,
						"TEXCOORD_0":21
					},
					"indices":22,
					"material":2
				}
			]
		},
		{
			"name":"Cube.002",
			"primitives":[
				{
					"attributes":{
						"POSITION":23,
						"NORMAL":24,
						"TEXCOORD_0":25
					},
					"indices":22,
					"material":3
				}
			]
		},
		{
			"name":"Cube.008",
			"primitives":[
				{
					"attributes":{
						"POSITION":26,
						"NORMAL":27,
						"TEXCOORD_0":28
					},
					"indices":18,
					"material":3
				}
			]
		}
	],
	"textures":[
		{
			"sampler":0,
			"source":0
		},
		{
			"sampler":0,
			"source":1
		},
		{
			"sampler":0,
			"source":0
		},
		{
			"sampler":0,
			"source":0
		}
	],
	"images":[
		{
			"mimeType":"image/jpeg",
			"name":"silver-metallic-textured-background",
			"uri":"silver-metallic-textured-background.jpg"
		},
		{
			"mimeType":"image/jpeg",
			"name":"felipe-santana-xJkTCbtuqAY-unsplash",
			"uri":"felipe-santana-xJkTCbtuqAY-unsplash.jpg"
		}
	],
	"accessors":[
		{
			"bufferView":0,
			"componentType":5126,
			"count":352,
			"max":[
				0.13634264469146729,
				3.320406198501587,
				0.11869300901889801
			],
			"min":[
				-1.4789413213729858,
				2.241628408432007,
				-0.11869300901889801
			],
			"type":"VEC3"
		},
		{
			"bufferView":1,
			"componentType":5126,
			"count":352,
			"type":"VEC3"
		},
		{
			"bufferView":2,
			"componentType":5126,
			"count":352,
			"type":"VEC2"
		},
		{
			"bufferView":3,
			"componentType":5123,
			"count":1188,
			"type":"SCALAR"
		},
		{
			"bufferView":4,
			"componentType":5126,
			"count":1088,
			"max":[
				0.13087444007396698,
				2.239248037338257,
				0.1308743804693222
			],
			"min":[
				-0.130874365568161,
				1.1966795921325684,
				-0.1308743804693222
			],
			"type":"VEC3"
		},
		{
			"bufferView":5,
			"componentType":5126,
			"count":1088,
			"type":"VEC3"
		},
		{
			"bufferView":6,
			"componentType":5126,
			"count":1088,
			"type":"VEC2"
		},
		{
			"bufferView":7,
			"componentType":5123,
			"count":1716,
			"type":"SCALAR"
		},
		{
			"bufferView":8,
			"componentType":5126,
			"count":80,
			"max":[
				1,
				0.986356258392334,
				1
			],
			"min":[
				-1,
				-1.5528340339660645,
				-1
			],
			"type":"VEC3"
		},
		{
			"bufferView":9,
			"componentType":5126,
			"count":80,
			"type":"VEC3"
		},
		{
			"bufferView":10,
			"componentType":5126,
			"count":80,
			"type":"VEC2"
		},
		{
			"bufferView":11,
			"componentType":5123,
			"count":132,
			"type":"SCALAR"
		},
		{
			"bufferView":12,
			"componentType":5126,
			"count":352,
			"max":[
				0.13634264469146729,
				3.320406198501587,
				0.11869300901889801
			],
			"min":[
				-1.4789413213729858,
				2.241628408432007,
				-0.11869300901889801
			],
			"type":"VEC3"
		},
		{
			"bufferView":13,
			"componentType":5126,
			"count":352,
			"type":"VEC3"
		},
		{
			"bufferView":14,
			"componentType":5126,
			"count":352,
			"type":"VEC2"
		},
		{
			"bufferView":15,
			"componentType":5126,
			"count":48,
			"max":[
				0.44624006748199463,
				4.518667697906494,
				0.1339101791381836
			],
			"min":[
				-0.00419306755065918,
				0.3435245752334595,
				-0.1339101791381836
			],
			"type":"VEC3"
		},
		{
			"bufferView":16,
			"componentType":5126,
			"count":48,
			"type":"VEC3"
		},
		{
			"bufferView":17,
			"componentType":5126,
			"count":48,
			"type":"VEC2"
		},
		{
			"bufferView":18,
			"componentType":5123,
			"count":102,
			"type":"SCALAR"
		},
		{
			"bufferView":19,
			"componentType":5126,
			"count":88,
			"max":[
				0.44624006748199463,
				0.3435245752334595,
				0.1339101791381836
			],
			"min":[
				-0.00419306755065918,
				-0.3435245752334595,
				-0.1339101791381836
			],
			"type":"VEC3"
		},
		{
			"bufferView":20,
			"componentType":5126,
			"count":88,
			"type":"VEC3"
		},
		{
			"bufferView":21,
			"componentType":5126,
			"count":88,
			"type":"VEC2"
		},
		{
			"bufferView":22,
			"componentType":5123,
			"count":222,
			"type":"SCALAR"
		},
		{
			"bufferView":23,
			"componentType":5126,
			"count":88,
			"max":[
				0.44624006748199463,
				0.3435245752334595,
				0.1339101791381836
			],
			"min":[
				-0.00419306755065918,
				-0.3435245752334595,
				-0.1339101791381836
			],
			"type":"VEC3"
		},
		{
			"bufferView":24,
			"componentType":5126,
			"count":88,
			"type":"VEC3"
		},
		{
			"bufferView":25,
			"componentType":5126,
			"count":88,
			"type":"VEC2"
		},
		{
			"bufferView":26,
			"componentType":5126,
			"count":48,
			"max":[
				0.44624006748199463,
				4.518667697906494,
				0.1339101791381836
			],
			"min":[
				-0.00419306755065918,
				0.3435245752334595,
				-0.1339101791381836
			],
			"type":"VEC3"
		},
		{
			"bufferView":27,
			"componentType":5126,
			"count":48,
			"type":"VEC3"
		},
		{
			"bufferView":28,
			"componentType":5126,
			"count":48,
			"type":"VEC2"
		}
	],
	"bufferViews":[
		{
			"buffer":0,
			"byteLength":4224,
			"byteOffset":0,
			"target":34962
		},
		{
			"buffer":0,
			"byteLength":4224,
			"byteOffset":4224,
			"target":34962
		},
		{
			"buffer":0,
			"byteLength":2816,
			"byteOffset":8448,
			"target":34962
		},
		{
			"buffer":0,
			"byteLength":2376,
			"byteOffset":11264,
			"target":34963
		},
		{
			"buffer":0,
			"byteLength":13056,
			"byteOffset":13640,
			"target":34962
		},
		{
			"buffer":0,
			"byteLength":13056,
			"byteOffset":26696,
			"target":34962
		},
		{
			"buffer":0,
			"byteLength":8704,
			"byteOffset":39752,
			"target":34962
		},
		{
			"buffer":0,
			"byteLength":3432,
			"byteOffset":48456,
			"target":34963
		},
		{
			"buffer":0,
			"byteLength":960,
			"byteOffset":51888,
			"target":34962
		},
		{
			"buffer":0,
			"byteLength":960,
			"byteOffset":52848,
			"target":34962
		},
		{
			"buffer":0,
			"byteLength":640,
			"byteOffset":53808,
			"target":34962
		},
		{
			"buffer":0,
			"byteLength":264,
			"byteOffset":54448,
			"target":34963
		},
		{
			"buffer":0,
			"byteLength":4224,
			"byteOffset":54712,
			"target":34962
		},
		{
			"buffer":0,
			"byteLength":4224,
			"byteOffset":58936,
			"target":34962
		},
		{
			"buffer":0,
			"byteLength":2816,
			"byteOffset":63160,
			"target":34962
		},
		{
			"buffer":0,
			"byteLength":576,
			"byteOffset":65976,
			"target":34962
		},
		{
			"buffer":0,
			"byteLength":576,
			"byteOffset":66552,
			"target":34962
		},
		{
			"buffer":0,
			"byteLength":384,
			"byteOffset":67128,
			"target":34962
		},
		{
			"buffer":0,
			"byteLength":204,
			"byteOffset":67512,
			"target":34963
		},
		{
			"buffer":0,
			"byteLength":1056,
			"byteOffset":67716,
			"target":34962
		},
		{
			"buffer":0,
			"byteLength":1056,
			"byteOffset":68772,
			"target":34962
		},
		{
			"buffer":0,
			"byteLength":704,
			"byteOffset":69828,
			"target":34962
		},
		{
			"buffer":0,
			"byteLength":444,
			"byteOffset":70532,
			"target":34963
		},
		{
			"buffer":0,
			"byteLength":1056,
			"byteOffset":70976,
			"target":34962
		},
		{
			"buffer":0,
			"byteLength":1056,
			"byteOffset":72032,
			"target":34962
		},
		{
			"buffer":0,
			"byteLength":704,
			"byteOffset":73088,
			"target":34962
		},
		{
			"buffer":0,
			"byteLength":576,
			"byteOffset":73792,
			"target":34962
		},
		{
			"buffer":0,
			"byteLength":576,
			"byteOffset":74368,
			"target":34962
		},
		{
			"buffer":0,
			"byteLength":384,
			"byteOffset":74944,
			"target":34962
		}
	],
	"samplers":[
		{
			"magFilter":9729,
			"minFilter":9987
		}
	],
	"buffers":[
		{
			"byteLength":75328,
			"uri":"Sword1.1.bin"
		}
	]
}
