{
	"asset":{
		"generator":"Khronos glTF Blender I/O v3.6.27",
		"version":"2.0"
	},
	"scene":0,
	"scenes":[
		{
			"name":"Scene",
			"nodes":[
				0,
				1,
				2,
				3
			]
		}
	],
	"nodes":[
		{
			"mesh":0,
			"name":"Cube"
		},
		{
			"mesh":1,
			"name":"Cube.001"
		},
		{
			"mesh":2,
			"name":"Cube.002",
			"rotation":[
				0,
				-1,
				0,
				1.6292068494294654e-07
			],
			"translation":[
				0.0011352300643920898,
				0,
				0
			]
		},
		{
			"mesh":3,
			"name":"Cube.003",
			"rotation":[
				0,
				-0.9999557137489319,
				-0.009413492865860462,
				4.887692739430349e-07
			],
			"translation":[
				0.0011352300643920898,
				0,
				0
			]
		}
	],
	"materials":[
		{
			"doubleSided":true,
			"name":"Material",
			"pbrMetallicRoughness":{
				"baseColorTexture":{
					"index":0
				},
				"metallicFactor":0,
				"roughnessFactor":0.5
			}
		},
		{
			"doubleSided":true,
			"name":"Material.002",
			"pbrMetallicRoughness":{
				"baseColorTexture":{
					"index":1
				},
				"metallicFactor":0,
				"roughnessFactor":0.5
			}
		}
	],
	"meshes":[
		{
			"name":"Cube",
			"primitives":[
				{
					"attributes":{
						"POSITION":0,
						"NORMAL":1,
						"TEXCOORD_0":2
					},
					"indices":3,
					"material":0
				}
			]
		},
		{
			"name":"Cube.001",
			"primitives":[
				{
					"attributes":{
						"POSITION":4,
						"NORMAL":5,
						"TEXCOORD_0":6
					},
					"indices":7,
					"material":0
				}
			]
		},
		{
			"name":"Cube.004",
			"primitives":[
				{
					"attributes":{
						"POSITION":8,
						"NORMAL":9,
						"TEXCOORD_0":10
					},
					"indices":7,
					"material":1
				}
			]
		},
		{
			"name":"Cube.005",
			"primitives":[
				{
					"attributes":{
						"POSITION":11,
						"NORMAL":12,
						"TEXCOORD_0":13
					},
					"indices":3,
					"material":1
				}
			]
		}
	],
	"textures":[
		{
			"sampler":0,
			"source":0
		},
		{
			"sampler":0,
			"source":1
		}
	],
	"images":[
		{
			"mimeType":"image/jpeg",
			"name":"silver-metallic-textured-background",
			"uri":"silver-metallic-textured-background.jpg"
		},
		{
			"mimeType":"image/jpeg",
			"name":"silver-metallic-textured-background.jpg",
			"uri":"silver-metallic-textured-background_jpg.jpg"
		}
	],
	"accessors":[
		{
			"bufferView":0,
			"componentType":5126,
			"count":48,
			"max":[
				0.44624006748199463,
				4.518667697906494,
				0.1339101791381836
			],
			"min":[
				-0.00419306755065918,
				0.3435245752334595,
				-0.1339101791381836
			],
			"type":"VEC3"
		},
		{
			"bufferView":1,
			"componentType":5126,
			"count":48,
			"type":"VEC3"
		},
		{
			"bufferView":2,
			"componentType":5126,
			"count":48,
			"type":"VEC2"
		},
		{
			"bufferView":3,
			"componentType":5123,
			"count":102,
			"type":"SCALAR"
		},
		{
			"bufferView":4,
			"componentType":5126,
			"count":88,
			"max":[
				0.44624006748199463,
				0.3435245752334595,
				0.1339101791381836
			],
			"min":[
				-0.00419306755065918,
				-0.3435245752334595,
				-0.1339101791381836
			],
			"type":"VEC3"
		},
		{
			"bufferView":5,
			"componentType":5126,
			"count":88,
			"type":"VEC3"
		},
		{
			"bufferView":6,
			"componentType":5126,
			"count":88,
			"type":"VEC2"
		},
		{
			"bufferView":7,
			"componentType":5123,
			"count":222,
			"type":"SCALAR"
		},
		{
			"bufferView":8,
			"componentType":5126,
			"count":88,
			"max":[
				0.44624006748199463,
				0.3435245752334595,
				0.1339101791381836
			],
			"min":[
				-0.00419306755065918,
				-0.3435245752334595,
				-0.1339101791381836
			],
			"type":"VEC3"
		},
		{
			"bufferView":9,
			"componentType":5126,
			"count":88,
			"type":"VEC3"
		},
		{
			"bufferView":10,
			"componentType":5126,
			"count":88,
			"type":"VEC2"
		},
		{
			"bufferView":11,
			"componentType":5126,
			"count":48,
			"max":[
				0.44624006748199463,
				4.518667697906494,
				0.1339101791381836
			],
			"min":[
				-0.00419306755065918,
				0.3435245752334595,
				-0.1339101791381836
			],
			"type":"VEC3"
		},
		{
			"bufferView":12,
			"componentType":5126,
			"count":48,
			"type":"VEC3"
		},
		{
			"bufferView":13,
			"componentType":5126,
			"count":48,
			"type":"VEC2"
		}
	],
	"bufferViews":[
		{
			"buffer":0,
			"byteLength":576,
			"byteOffset":0,
			"target":34962
		},
		{
			"buffer":0,
			"byteLength":576,
			"byteOffset":576,
			"target":34962
		},
		{
			"buffer":0,
			"byteLength":384,
			"byteOffset":1152,
			"target":34962
		},
		{
			"buffer":0,
			"byteLength":204,
			"byteOffset":1536,
			"target":34963
		},
		{
			"buffer":0,
			"byteLength":1056,
			"byteOffset":1740,
			"target":34962
		},
		{
			"buffer":0,
			"byteLength":1056,
			"byteOffset":2796,
			"target":34962
		},
		{
			"buffer":0,
			"byteLength":704,
			"byteOffset":3852,
			"target":34962
		},
		{
			"buffer":0,
			"byteLength":444,
			"byteOffset":4556,
			"target":34963
		},
		{
			"buffer":0,
			"byteLength":1056,
			"byteOffset":5000,
			"target":34962
		},
		{
			"buffer":0,
			"byteLength":1056,
			"byteOffset":6056,
			"target":34962
		},
		{
			"buffer":0,
			"byteLength":704,
			"byteOffset":7112,
			"target":34962
		},
		{
			"buffer":0,
			"byteLength":576,
			"byteOffset":7816,
			"target":34962
		},
		{
			"buffer":0,
			"byteLength":576,
			"byteOffset":8392,
			"target":34962
		},
		{
			"buffer":0,
			"byteLength":384,
			"byteOffset":8968,
			"target":34962
		}
	],
	"samplers":[
		{
			"magFilter":9729,
			"minFilter":9987
		}
	],
	"buffers":[
		{
			"byteLength":9352,
			"uri":"Blade1.bin"
		}
	]
}
