{
	"asset":{
		"generator":"Khronos glTF Blender I/O v3.6.27",
		"version":"2.0"
	},
	"scene":0,
	"scenes":[
		{
			"name":"Scene",
			"nodes":[
				0,
				1,
				2,
				3
			]
		}
	],
	"nodes":[
		{
			"mesh":0,
			"name":"Cube",
			"scale":[
				2.403761625289917,
				1,
				1
			],
			"translation":[
				0,
				0.3985903859138489,
				-0.020180324092507362
			]
		},
		{
			"mesh":1,
			"name":"Cube.002",
			"rotation":[
				0,
				0.9999998211860657,
				0,
				0.0006051500095054507
			],
			"scale":[
				2.403761625289917,
				1,
				1
			],
			"translation":[
				0,
				0.3985903859138489,
				-0.0177004337310791
			]
		},
		{
			"mesh":2,
			"name":"Cube.003",
			"scale":[
				0.11102727055549622,
				0.36578285694122314,
				0.11102727055549622
			],
			"translation":[
				0,
				-0.2944619059562683,
				0
			]
		},
		{
			"mesh":3,
			"name":"Sphere.001",
			"scale":[
				0.18433614075183868,
				0.18433614075183868,
				0.18433614075183868
			],
			"translation":[
				0,
				-1.2584340572357178,
				0
			]
		}
	],
	"materials":[
		{
			"doubleSided":true,
			"name":"Material",
			"pbrMetallicRoughness":{
				"baseColorTexture":{
					"index":0
				},
				"metallicFactor":0,
				"roughnessFactor":0.5
			}
		},
		{
			"doubleSided":true,
			"name":"Material.001",
			"pbrMetallicRoughness":{
				"baseColorTexture":{
					"index":1
				},
				"metallicFactor":0,
				"roughnessFactor":0.5
			}
		},
		{
			"doubleSided":true,
			"name":"Material.002",
			"pbrMetallicRoughness":{
				"baseColorTexture":{
					"index":2
				},
				"metallicFactor":0,
				"roughnessFactor":0.5
			}
		},
		{
			"doubleSided":true,
			"name":"Material.003",
			"pbrMetallicRoughness":{
				"baseColorTexture":{
					"index":3
				},
				"metallicFactor":0,
				"roughnessFactor":0.5
			}
		}
	],
	"meshes":[
		{
			"name":"Cube",
			"primitives":[
				{
					"attributes":{
						"POSITION":0,
						"NORMAL":1,
						"TEXCOORD_0":2
					},
					"indices":3,
					"material":0
				}
			]
		},
		{
			"name":"Cube.002",
			"primitives":[
				{
					"attributes":{
						"POSITION":4,
						"NORMAL":5,
						"TEXCOORD_0":6
					},
					"indices":3,
					"material":1
				}
			]
		},
		{
			"name":"Cube.003",
			"primitives":[
				{
					"attributes":{
						"POSITION":7,
						"NORMAL":8,
						"TEXCOORD_0":9
					},
					"indices":10,
					"material":2
				}
			]
		},
		{
			"name":"Sphere.001",
			"primitives":[
				{
					"attributes":{
						"POSITION":11,
						"NORMAL":12,
						"TEXCOORD_0":13
					},
					"indices":14,
					"material":3
				}
			]
		}
	],
	"textures":[
		{
			"sampler":0,
			"source":0
		},
		{
			"sampler":0,
			"source":0
		},
		{
			"sampler":0,
			"source":1
		},
		{
			"sampler":0,
			"source":2
		}
	],
	"images":[
		{
			"mimeType":"image/jpeg",
			"name":"silver-metallic-textured-background",
			"uri":"silver-metallic-textured-background.jpg"
		},
		{
			"mimeType":"image/jpeg",
			"name":"felipe-santana-xJkTCbtuqAY-unsplash",
			"uri":"felipe-santana-xJkTCbtuqAY-unsplash.jpg"
		},
		{
			"mimeType":"image/jpeg",
			"name":"golden-scratched-surface-texture-photo",
			"uri":"golden-scratched-surface-texture-photo.jpg"
		}
	],
	"accessors":[
		{
			"bufferView":0,
			"componentType":5126,
			"count":250,
			"max":[
				0.05204272270202637,
				0.7195492386817932,
				1.1590077877044678
			],
			"min":[
				-0.05238164961338043,
				-0.35331207513809204,
				-0.0004011858254671097
			],
			"type":"VEC3"
		},
		{
			"bufferView":1,
			"componentType":5126,
			"count":250,
			"type":"VEC3"
		},
		{
			"bufferView":2,
			"componentType":5126,
			"count":250,
			"type":"VEC2"
		},
		{
			"bufferView":3,
			"componentType":5123,
			"count":480,
			"type":"SCALAR"
		},
		{
			"bufferView":4,
			"componentType":5126,
			"count":250,
			"max":[
				0.05204272270202637,
				0.7195492386817932,
				1.1590077877044678
			],
			"min":[
				-0.05238164961338043,
				-0.35331207513809204,
				-0.0004011858254671097
			],
			"type":"VEC3"
		},
		{
			"bufferView":5,
			"componentType":5126,
			"count":250,
			"type":"VEC3"
		},
		{
			"bufferView":6,
			"componentType":5126,
			"count":250,
			"type":"VEC2"
		},
		{
			"bufferView":7,
			"componentType":5126,
			"count":361,
			"max":[
				1.5689259767532349,
				1,
				1.5689259767532349
			],
			"min":[
				-1.5689259767532349,
				-0.9713481664657593,
				-1.5689259767532349
			],
			"type":"VEC3"
		},
		{
			"bufferView":8,
			"componentType":5126,
			"count":361,
			"type":"VEC3"
		},
		{
			"bufferView":9,
			"componentType":5126,
			"count":361,
			"type":"VEC2"
		},
		{
			"bufferView":10,
			"componentType":5123,
			"count":1716,
			"type":"SCALAR"
		},
		{
			"bufferView":11,
			"componentType":5126,
			"count":596,
			"max":[
				0.9999997019767761,
				3.4445102214813232,
				0.9999993443489075
			],
			"min":[
				-0.9999990463256836,
				1.4445102214813232,
				-1
			],
			"type":"VEC3"
		},
		{
			"bufferView":12,
			"componentType":5126,
			"count":596,
			"type":"VEC3"
		},
		{
			"bufferView":13,
			"componentType":5126,
			"count":596,
			"type":"VEC2"
		},
		{
			"bufferView":14,
			"componentType":5123,
			"count":2880,
			"type":"SCALAR"
		}
	],
	"bufferViews":[
		{
			"buffer":0,
			"byteLength":3000,
			"byteOffset":0,
			"target":34962
		},
		{
			"buffer":0,
			"byteLength":3000,
			"byteOffset":3000,
			"target":34962
		},
		{
			"buffer":0,
			"byteLength":2000,
			"byteOffset":6000,
			"target":34962
		},
		{
			"buffer":0,
			"byteLength":960,
			"byteOffset":8000,
			"target":34963
		},
		{
			"buffer":0,
			"byteLength":3000,
			"byteOffset":8960,
			"target":34962
		},
		{
			"buffer":0,
			"byteLength":3000,
			"byteOffset":11960,
			"target":34962
		},
		{
			"buffer":0,
			"byteLength":2000,
			"byteOffset":14960,
			"target":34962
		},
		{
			"buffer":0,
			"byteLength":4332,
			"byteOffset":16960,
			"target":34962
		},
		{
			"buffer":0,
			"byteLength":4332,
			"byteOffset":21292,
			"target":34962
		},
		{
			"buffer":0,
			"byteLength":2888,
			"byteOffset":25624,
			"target":34962
		},
		{
			"buffer":0,
			"byteLength":3432,
			"byteOffset":28512,
			"target":34963
		},
		{
			"buffer":0,
			"byteLength":7152,
			"byteOffset":31944,
			"target":34962
		},
		{
			"buffer":0,
			"byteLength":7152,
			"byteOffset":39096,
			"target":34962
		},
		{
			"buffer":0,
			"byteLength":4768,
			"byteOffset":46248,
			"target":34962
		},
		{
			"buffer":0,
			"byteLength":5760,
			"byteOffset":51016,
			"target":34963
		}
	],
	"samplers":[
		{
			"magFilter":9729,
			"minFilter":9987
		}
	],
	"buffers":[
		{
			"byteLength":56776,
			"uri":"Handle3.bin"
		}
	]
}
